<svg width="48" height="48" viewBox="0 0 48 48" fill="none" xmlns="http://www.w3.org/2000/svg">
<path d="M20.4246 5.30105L6.47826 15.8273C4.36925 17.4184 3.48892 20.2265 4.29628 22.7875L9.62059 39.6878C10.4303 42.2605 12.7559 44 15.3804 44H32.6196C35.2441 44 37.5697 42.2582 38.3794 39.6878L43.7037 22.7875C44.5111 20.2265 43.6308 17.4184 41.5217 15.8273L27.5849 5.30105C25.4523 3.69104 22.5548 3.69104 20.4246 5.30105Z" fill="#686868"/>
<path d="M19.5161 36.1571C17.9013 36.1571 16.2843 35.5475 15.0462 34.3258L14.985 34.2646C13.7939 33.0336 13.1608 31.4236 13.189 29.7218C13.2196 28.0224 13.9093 26.4359 15.1309 25.2543C17.3058 23.1523 20.5635 22.8958 23.0067 24.4822L26.0385 21.4505L30.4754 17.0136C30.4777 17.0112 30.4801 17.0089 30.4848 17.0042L31.1509 16.338C31.6405 15.8485 32.4337 15.8485 32.9257 16.338C33.4153 16.8276 33.4153 17.6232 32.9257 18.1128L31.7441 19.2944L33.646 21.1963C34.1355 21.6859 34.1355 22.4815 33.646 22.9711L30.812 25.8004C30.3224 26.2899 29.5291 26.2899 29.0372 25.8004L27.1353 23.8985L24.7956 26.2382C26.4527 28.6979 26.2079 32.0733 24.0448 34.2646C22.8043 35.5239 21.1614 36.1571 19.5161 36.1571ZM19.5514 26.8313C18.8028 26.8313 18.0543 27.1138 17.4729 27.6763C16.2866 28.8226 16.2537 30.7198 17.4 31.9061L17.4212 31.9273C18.5957 33.0854 20.4952 33.0736 21.6533 31.8991C22.2159 31.3294 22.5219 30.5762 22.5148 29.7783C22.5101 28.9921 22.2041 28.253 21.651 27.6952C21.6439 27.6881 21.6368 27.6834 21.6298 27.6763C21.046 27.1114 20.2975 26.8313 19.5514 26.8313Z" fill="#D7D7D7"/>
</svg>
