<svg width="48" height="48" viewBox="0 0 48 48" fill="none" xmlns="http://www.w3.org/2000/svg">
<path d="M20.4696 5.20921L6.49186 15.7629C4.37736 17.3588 3.4973 20.1703 4.30696 22.7377L9.64365 39.6771C10.4557 42.254 12.7861 44 15.4169 44H32.6966C35.3274 44 37.6578 42.254 38.4698 39.6771L43.8065 22.7377C44.6161 20.1703 43.7337 17.3564 41.6216 15.7606L27.6439 5.20921C25.5082 3.59693 22.6052 3.59693 20.4696 5.20921Z" fill="#D7D7D7"/>
<path d="M19.0779 21.048C19.0779 18.2811 21.3191 16.0399 24.086 16.0399C26.8529 16.0399 29.0942 18.2811 29.0942 21.048C29.0942 23.8149 26.8529 26.0561 24.086 26.0561C21.3191 26.0561 19.0779 23.8149 19.0779 21.048Z" fill="#686868"/>
<path d="M15.513 29.5318C16.4518 28.5931 17.7238 28.0674 19.0521 28.0674H29.0942C30.4201 28.0674 31.6944 28.5954 32.6332 29.5318C33.5719 30.4705 34.0976 31.7425 34.0976 33.0708V34.0753C34.0976 35.1783 33.2035 36.0724 32.1004 36.0724H16.0598C14.9474 36.0724 14.0463 35.1712 14.0463 34.0588V33.0708C14.0486 31.7449 14.5743 30.4705 15.513 29.5318Z" fill="#B9B9B9"/>
</svg>
